<?xml version="1.0" encoding="UTF-8"?>
<svg id="Layer_2" data-name="Layer 2" xmlns="http://www.w3.org/2000/svg" viewBox="0 0 689.94 92.73">
  <g id="Ebene_1" data-name="Ebene 1">
    <g>
      <g>
        <path d="M126.65,63.07h-14.21V30.1h16l17.8,16.87v-16.87h14.26v32.97h-14.89l-18.96-19.2v19.2Z"/>
        <path d="M196.29,63.8h-17.12c-8.29,0-16-5.48-16-17.21s7.71-17.17,16-17.17h17.12c8.29,0,15.76,5.48,15.76,17.17s-7.47,17.21-15.76,17.21ZM193.48,53.81c3.69,0,6.21-1.31,6.21-7.23s-2.52-7.22-6.21-7.22h-11.49c-3.69,0-6.4,1.36-6.4,7.22s2.23,7.23,6.4,7.23h11.49Z"/>
        <path d="M273.54,63.07h-40.39V30.1h14.26v22.31h26.14v10.67Z"/>
        <path d="M276.69,30.1h14.21v32.97h-14.21V30.1Z"/>
        <path d="M350.88,63.07h-14.26v-19.98l-7.95,19.98h-12.46l-7.9-19.98v19.98h-14.26V30.1h21.53l6.89,17.31,6.84-17.31h21.58v32.97Z"/>
        <path d="M354.03,30.1h14.21v32.97h-14.21V30.1Z"/>
        <path d="M419.79,40.91h-17.12v22.16h-14.21v-22.16c-7.27.05-13.77.05-17.07.05v-10.86h48.39v10.81Z"/>
        <path d="M471.19,52.5c0,9.07-5.96,11.35-13.63,11.35h-21.24c-9.94,0-13.87-3.88-13.87-12.36h13.58c.15,1.84,2.13,1.89,3.83,1.89,5.19,0,14.26.05,16.63.05,1.31,0,1.79-.53,1.79-1.89,0-.87-.58-1.26-1.89-1.26-6.69-.15-13.63-.34-20.32-.53-8.49,0-13.58-1.75-13.58-9.02,0-9.07,5.96-11.35,13.63-11.35h20.51c9.89,0,13.82,3.88,13.82,12.37h-13.58c-.15-1.89-2.08-1.94-3.83-1.94h-15.86c-1.31,0-1.79.48-1.79,1.84,0,.87.48,1.21,1.79,1.21,6.69.15,13.63.34,20.37.53,8.49,0,13.63,1.84,13.63,9.12Z"/>
        <path d="M540.19,40.91h-17.12v22.16h-14.21v-22.16c-7.27.05-13.77.05-17.07.05v-10.86h48.39v10.81Z"/>
        <path d="M575.49,63.8h-17.12c-8.29,0-16-5.48-16-17.21s7.71-17.17,16-17.17h17.12c8.29,0,15.76,5.48,15.76,17.17s-7.47,17.21-15.76,17.21ZM572.68,53.81c3.69,0,6.21-1.31,6.21-7.23s-2.52-7.22-6.21-7.22h-11.49c-3.69,0-6.4,1.36-6.4,7.22s2.23,7.23,6.4,7.23h11.49Z"/>
        <path d="M614.1,53.32h6.98c3.64,0,5.92-2.33,5.92-6.74v-16.49h14.21v16.49c0,11.73-8.19,17.21-16.49,17.21h-14.3c-8.29,0-16.49-5.48-16.49-17.21v-16.49h14.21v16.49c0,4.41,2.28,6.74,5.96,6.74Z"/>
        <path d="M665.45,54.1h-6.84v8.97h-14.26V30.1h29.68c8.29,0,15.61.39,15.61,12.46,0,7.08-3.35,9.89-9.07,10.67l9.36,9.84h-16.54l-7.95-8.97ZM658.61,44.5h14.11c3.69,0,4.46-.1,4.46-1.94s-.78-1.99-4.46-1.99h-14.11v3.93Z"/>
      </g>
      <g>
        <polygon points="37.77 19.72 23.18 0 0 0 0 23.18 19.72 37.77 19.72 19.72 37.77 19.72"/>
        <polygon points="73.02 37.77 92.73 23.18 92.73 0 69.55 0 54.96 19.72 73.02 19.72 73.02 37.77"/>
        <polygon points="54.96 73.02 69.55 92.73 92.73 92.73 92.73 69.55 73.02 54.96 73.02 73.02 54.96 73.02"/>
        <polygon points="19.72 54.96 0 69.55 0 92.73 23.18 92.73 37.77 73.02 19.72 73.02 19.72 54.96"/>
      </g>
    </g>
  </g>
</svg>