<?xml version="1.0" encoding="UTF-8"?>
<svg id="Layer_2" data-name="Layer 2" xmlns="http://www.w3.org/2000/svg" viewBox="0 0 412.05 111.84">
  <g id="Ebene_1" data-name="Ebene 1">
    <g>
      <g>
        <path d="M166.6,91.67h-30.81V20.17h34.7l38.59,36.6V20.17h30.92v71.51h-32.28l-41.12-41.64v41.64Z"/>
        <path d="M334.44,91.67h-87.6V20.17h30.92v48.37h56.68v23.13Z"/>
        <path d="M412.05,43.62h-37.12v48.06h-30.81v-48.06c-15.77.1-29.86.1-37.01.1v-23.55h104.95v23.45Z"/>
      </g>
      <g>
        <polygon points="45.56 23.78 27.96 0 0 0 0 27.96 23.78 45.56 23.78 23.78 45.56 23.78"/>
        <polygon points="88.06 45.56 111.84 27.96 111.84 0 83.88 0 66.28 23.78 88.06 23.78 88.06 45.56"/>
        <polygon points="66.28 88.06 83.88 111.84 111.84 111.84 111.84 83.88 88.06 66.28 88.06 88.06 66.28 88.06"/>
        <polygon points="23.78 66.28 0 83.88 0 111.84 27.96 111.84 45.56 88.06 23.78 88.06 23.78 66.28"/>
      </g>
    </g>
  </g>
</svg>