<?xml version="1.0" encoding="UTF-8"?>
<svg id="Layer_2" data-name="Layer 2" xmlns="http://www.w3.org/2000/svg" viewBox="0 0 481.77 119.68">
  <g id="Ebene_1" data-name="Ebene 1">
    <g>
      <path d="M155.3,97.75h10.02c4.86,0,9.65,3,10.39,9.22h-8.41c-.56-1.49-1.76-2.57-3.46-2.57h-7.05c-2.35,0-3.77,1.21-3.77,4.3s1.42,4.3,3.77,4.3h7.05c1.7,0,2.91-1.05,3.46-2.57h8.41c-.74,6.22-5.54,9.25-10.39,9.25h-10.02c-5.29,0-10.52-3.49-10.52-10.98s5.23-10.95,10.52-10.95Z"/>
      <path d="M209.37,119.22h-25.77v-21.03h9.09v14.23h16.67v6.8Z"/>
      <path d="M217.58,98.18h9.06v21.03h-9.06v-21.03Z"/>
      <path d="M243.93,119.22h-9.09v-21.03h26.14v6.22h-17.04v1.86h15.62v4.92h-15.62v8.04Z"/>
      <path d="M278.06,119.22h-9.09v-21.03h26.14v6.22h-17.04v1.86h15.62v4.92h-15.62v8.04Z"/>
      <path d="M322.45,119.22h-19.36v-21.03h19.36c5.29,0,10.52,3.06,10.52,10.52s-5.23,10.52-10.52,10.52ZM324.74,108.7c0-2.51-1.05-3.84-3.4-3.84h-9.16v7.67h9.16c2.35,0,3.4-1.33,3.4-3.84Z"/>
      <path d="M340.86,98.18h9.06v21.03h-9.06v-21.03Z"/>
      <path d="M367,98.18l5.78,15.28,5.75-15.28h9.81l-9.74,21.03h-11.63l-9.77-21.03h9.81Z"/>
      <path d="M395.62,98.18h9.06v21.03h-9.06v-21.03Z"/>
      <path d="M421.94,119.22h-9.06v-21.03h10.21l11.35,10.77v-10.77h9.09v21.03h-9.5l-12.1-12.25v12.25Z"/>
      <path d="M461.94,97.75h9.4c6.19,0,9.87,3,10.39,7.89h-7.8c-.34-.74-.74-1.24-3.5-1.24h-7.02c-2.35,0-3.8,1.49-3.8,4.3s1.45,4.3,3.8,4.3h5.91c1.11,0,3.22-.37,4.08-1.61h-6.74v-4.45h15.09v12.28h-5.72l-.84-2.32c-1.02,1.61-3.31,2.78-6.68,2.78h-6.59c-5.29,0-10.52-3.18-10.52-10.98s5.23-10.95,10.52-10.95Z"/>
    </g>
    <g>
      <path d="M182.67,87.14h-37.55V0h42.29l47.03,44.59V0h37.67v87.14h-39.34l-50.1-50.74v50.74Z"/>
      <path d="M387.19,87.14h-106.74V0h37.67v58.94h69.07v28.19Z"/>
      <path d="M481.77,28.57h-45.23v58.56h-37.55V28.57c-19.22.13-36.39.13-45.11.13V0h127.89v28.57Z"/>
    </g>
    <polygon points="48.75 25.45 29.92 0 0 0 0 29.92 25.45 48.75 25.45 25.45 48.75 25.45"/>
    <polygon points="94.24 48.75 119.68 29.92 119.68 0 89.76 0 70.93 25.45 94.24 25.45 94.24 48.75"/>
    <polygon points="70.93 94.24 89.76 119.68 119.68 119.68 119.68 89.76 94.24 70.93 94.24 94.24 70.93 94.24"/>
    <polygon points="25.45 70.93 0 89.76 0 119.68 29.92 119.68 48.75 94.24 25.45 94.24 25.45 70.93"/>
  </g>
</svg>